<?xml version="1.0" encoding="utf-8"?>
<!-- Generator: Adobe Illustrator 18.1.1, SVG Export Plug-In . SVG Version: 6.00 Build 0)  -->
<!DOCTYPE svg PUBLIC "-//W3C//DTD SVG 1.1//EN" "http://www.w3.org/Graphics/SVG/1.1/DTD/svg11.dtd">
<svg version="1.1" xmlns="http://www.w3.org/2000/svg" xmlns:xlink="http://www.w3.org/1999/xlink" x="0px" y="0px"
	 viewBox="0 0 132.14 34.68" enable-background="new 0 0 132.14 34.68" xml:space="preserve">
<g id="Background">
</g>
<g id="Foreground">
	<g id="FMOD_5_">
		<path fill-rule="evenodd" clip-rule="evenodd" fill="#FFFFFF" d="M124.62,30.92c0,2.15,1.72,3.76,3.77,3.76
			c2.04,0,3.75-1.61,3.75-3.76c0-2.11-1.71-3.72-3.75-3.72C126.34,27.2,124.62,28.81,124.62,30.92z M125.3,30.92
			c0-1.79,1.34-3.17,3.09-3.17c1.73,0,3.07,1.38,3.07,3.17c0,1.83-1.34,3.21-3.07,3.21C126.64,34.13,125.3,32.75,125.3,30.92z
			 M126.86,33.03h0.68v-1.88h0.72l1.19,1.88h0.73l-1.25-1.93c0.65-0.07,1.15-0.4,1.15-1.19c0-0.84-0.49-1.25-1.53-1.25h-1.69V33.03z
			 M127.54,29.21h0.9c0.46,0,0.96,0.09,0.96,0.67c0,0.69-0.55,0.72-1.15,0.72h-0.71V29.21z"/>
		<circle fill="#FFFFFF" cx="19.41" cy="15.3" r="3.88"/>
		<path fill="#FFFFFF" d="M116.63,24.97c0.13-0.2,0.26-0.43,0.37-0.68c0.61-1.19,1.86-1.99,3.29-1.99c2.03,0,3.68,1.65,3.68,3.68
			c0,0.52-0.11,1-0.3,1.45l-0.1,0.22c-2.03,4.18-6.33,7.03-11.21,7.03c-6.77,0-12.26-5.49-12.26-12.26
			c0-6.77,5.49-12.26,12.26-12.26h0.54c2.01,0.09,3.92,0.66,5.59,1.61V0h7.29v16.59c0,1.92-1.7,3.98-3.92,3.98
			c-2.51,0-4.42-0.81-5.89-2.06c-0.84-0.66-1.91-1.05-3.06-1.05h-0.54c-2.75,0-4.97,2.23-4.97,4.97c0,2.75,2.23,4.97,4.97,4.97
			C114.17,27.39,115.76,26.42,116.63,24.97z"/>
		<path fill="#FFFFFF" d="M73.65,22.42c0-6.77,5.49-12.26,12.26-12.26c6.77,0,12.26,5.49,12.26,12.26c0,6.77-5.49,12.26-12.26,12.26
			C79.13,34.68,73.65,29.19,73.65,22.42z M90.88,22.42c0-2.75-2.23-4.97-4.97-4.97c-2.75,0-4.97,2.23-4.97,4.97
			c0,2.75,2.23,4.97,4.97,4.97C88.65,27.39,90.88,25.17,90.88,22.42z"/>
		<path fill="#FFFFFF" d="M58.83,17.43c-0.61,0-1.13,0.4-1.31,0.95l-2.93,10.11c-1.06,3.58-4.35,6.19-8.27,6.19
			c-3.92,0-7.21-2.61-8.27-6.19l-2.93-10.11c-0.18-0.56-0.7-0.95-1.31-0.95c-0.61,0-1.14,0.4-1.32,0.95l-2.93,10.11
			c-1.06,3.58-4.37,6.19-8.3,6.19h-2.03v-7.27h2.06c0.61,0,1.12-0.39,1.3-0.95l2.93-10.11c1.06-3.58,4.37-6.19,8.29-6.19
			c3.92,0,7.23,2.61,8.29,6.19l2.93,10.11c0.18,0.56,0.69,0.95,1.3,0.95s1.12-0.39,1.3-0.95l2.93-10.11
			c1.06-3.58,4.36-6.19,8.29-6.19c3.92,0,7.23,2.61,8.29,6.19l2.93,10.11c0.18,0.56,0.69,0.95,1.3,0.95h2.06v7.27h-2.03
			c-3.92,0-7.24-2.61-8.3-6.19l-2.93-10.11C59.96,17.83,59.44,17.43,58.83,17.43z"/>
		<path fill="#FFFFFF" d="M18.47,7.29c-2.75,0-4.97,2.23-4.97,4.97v22.42H6.21V19.19H0v-7.26h6.21C6.39,5.31,11.81,0,18.47,0h7.27
			v7.29H18.47z"/>
	</g>
</g>
</svg>
